<?xml version="1.0" standalone="no"?>
<!DOCTYPE svg PUBLIC "-//W3C//DTD SVG 1.1//EN" "http://www.w3.org/Graphics/SVG/1.1/DTD/svg11.dtd" >
<svg xmlns="http://www.w3.org/2000/svg">
<metadata>
This is a custom SVG webfont generated by Font Squirrel.
Copyright   : Copyright c 2012 OmnibusType wwwomnibustypecomomnibustypegmailcomwith Reserved Font Name Archivo
Designer    : Hector Gatti
Foundry     : Hector Gatti
Foundry URL : httpwwwomnibustypecom
</metadata>
<defs>
<font id="ArchivoNarrowBoldItalic" horiz-adv-x="933" >
<font-face units-per-em="2048" ascent="1638" descent="-410" />
<missing-glyph horiz-adv-x="466" />
<glyph unicode=" "  horiz-adv-x="466" />
<glyph unicode="&#x09;" horiz-adv-x="466" />
<glyph unicode="&#xa0;" horiz-adv-x="466" />
<glyph unicode="!" horiz-adv-x="559" d="M70 0l41 281h282l-41 -281h-282zM182 403l70 1002h313l-215 -1002h-168z" />
<glyph unicode="&#x22;" horiz-adv-x="796" d="M172 834v270l43 301h250l-43 -301l-88 -270h-162zM543 834v270l43 301h250l-43 -301l-88 -270h-162z" />
<glyph unicode="#" d="M45 399v172h168l63 289h-151v172h190l91 398h180l-90 -398h153l90 398h181l-91 -398h127v-172h-165l-64 -289h150v-172h-189l-90 -399h-180l90 399h-154l-90 -399h-180l90 399h-129zM393 571h154l63 289h-153z" />
<glyph unicode="$" d="M49 416l12 96h234q-8 -35 -8 -51q0 -106 100 -131l41 291q-66 27 -101.5 45t-84.5 54t-72 88t-23 120q0 150 105.5 237.5t267.5 96.5l31 219h100l-30 -221q152 -18 218 -110.5t66 -225.5h-231q0 123 -80 147l-39 -266q78 -29 117 -47.5t92 -54t76.5 -86t23.5 -117.5 q0 -180 -114.5 -269.5t-288.5 -93.5l-33 -237h-100l32 241q-145 16 -228 88t-83 187zM385 956q0 -67 76 -108l33 227q-47 -10 -78 -40.5t-31 -78.5zM487 322q55 6 94.5 37.5t39.5 89.5q-1 76 -97 129z" />
<glyph unicode="%" horiz-adv-x="1492" d="M139 944q0 252 90 369t232 117q129 0 194.5 -58.5t65.5 -197.5q0 -84 -13.5 -160t-46 -154t-100.5 -124t-162 -46q-129 0 -194.5 58.5t-65.5 195.5zM160 0l1054 1405h177l-1057 -1405h-174zM319 954q0 -114 80 -114q57 0 86 52t43 152q10 80 11 121q0 115 -78 115 q-57 0 -85 -51t-44 -154q-12 -76 -13 -121zM829 229q0 252 90.5 369t231.5 117q129 0 194.5 -58.5t65.5 -197.5q0 -84 -13.5 -160t-46 -153.5t-100 -124t-161.5 -46.5q-129 0 -195 58.5t-66 195.5zM1010 240q0 -115 80 -115q57 0 85.5 52t43.5 153q10 80 10 121 q0 115 -78 114q-57 0 -85 -51t-44 -154q-12 -75 -12 -120z" />
<glyph unicode="&#x26;" horiz-adv-x="1212" d="M66 317q0 158 82.5 267.5t205.5 136.5v8q-168 88 -168 258q0 209 142.5 326t359.5 117q188 0 302 -89.5t114 -238.5q0 -20 -12 -115h-244q8 53 8 80q0 156 -180 156q-109 0 -173.5 -62.5t-64.5 -167.5q0 -82 47 -129t125 -47h84l-28 -207h-78q-113 0 -189.5 -58 t-76.5 -198q0 -172 198 -172q215 0 244 209l59 426h404l-29 -207h-160l-28 -213q-25 -195 -157 -308.5t-345 -113.5q-203 0 -322.5 91t-119.5 251z" />
<glyph unicode="'" horiz-adv-x="399" d="M172 834v270l43 301h250l-43 -301l-88 -270h-162z" />
<glyph unicode="(" horiz-adv-x="559" d="M70 375q0 100 16 215q74 522 434 915h162q-172 -250 -278.5 -554t-106.5 -586q0 -371 129 -687h-162q-194 302 -194 697z" />
<glyph unicode=")" horiz-adv-x="559" d="M-96 -322q172 250 278.5 554.5t106.5 586.5q0 371 -129 686h162q195 -301 194 -696q0 -100 -16 -215q-74 -523 -434 -916h-162z" />
<glyph unicode="*" horiz-adv-x="653" d="M96 1006l201 86l-176 90l98 135l156 -121l8 209h160l-49 -207l188 119l61 -135l-204 -90l180 -86l-101 -140l-155 123l-8 -209h-160l49 209l-188 -123z" />
<glyph unicode="+" horiz-adv-x="980" d="M51 416l31 213h315l58 418h211l-58 -418h318l-31 -213h-317l-58 -416h-211l58 416h-316z" />
<glyph unicode="," horiz-adv-x="466" d="M-12 -319l149 319h-104l39 281h282l-35 -256l-184 -344h-147z" />
<glyph unicode="-" horiz-adv-x="559" d="M27 432l34 242h494l-35 -242h-493z" />
<glyph unicode="." horiz-adv-x="466" d="M31 0l39 281h282l-39 -281h-282z" />
<glyph unicode="/" horiz-adv-x="466" d="M-86 -100l516 1605h174l-516 -1605h-174z" />
<glyph unicode="0" d="M68 408q0 123 24 294q53 408 170 568t311 160q170 0 257.5 -98.5t87.5 -338.5q0 -135 -23 -291q-55 -408 -172.5 -567.5t-310.5 -159.5q-170 0 -257 97.5t-87 335.5zM309 362q0 -94 26 -137t85 -43q88 0 132 102.5t79 346.5q43 303 43 393q0 102 -24.5 150.5t-84.5 48.5 q-88 0 -133 -103.5t-78 -345.5q-4 -29 -14 -97.5t-15.5 -107.5t-10.5 -97t-5 -110z" />
<glyph unicode="1" d="M25 0l26 207h311l125 876h-315l23 164q92 10 225 54.5t235 103.5h119l-168 -1198h287l-29 -207h-839z" />
<glyph unicode="2" d="M-8 0l8 49q20 117 79.5 225.5t133.5 187.5t157 162l152 152q68 68 112 152t44 168q0 51 -27.5 87t-85.5 36q-72 0 -113.5 -60.5t-54.5 -152.5l-10 -84h-248q0 215 119 361.5t330 146.5q158 0 251 -75t97 -229q0 -121 -49 -238.5t-128 -212.5t-159 -173t-156.5 -153 t-107.5 -120h483l-33 -229h-794z" />
<glyph unicode="3" d="M49 315q0 37 10 119h254q-10 -80 -10 -100q0 -152 129 -152q82 0 133 68.5t51 202.5q0 158 -139 157h-67l28 207h72q68 0 120 73t52 202q0 131 -104 131q-133 0 -164 -236h-252q18 211 136 327t284 116t261 -82t95 -238q0 -260 -229 -381v-8q162 -68 161 -270 q0 -215 -127 -345.5t-315 -130.5q-184 0 -281.5 90t-97.5 250z" />
<glyph unicode="4" d="M6 317l29 197q238 342 471 916h250q-86 -242 -251 -517.5t-261 -388.5h291l34 250q119 188 189 381h108l-90 -631h144l-29 -207h-141l-45 -317h-244l45 317h-500z" />
<glyph unicode="5" d="M49 344q0 43 6 92h254q-6 -40 -6 -74q0 -86 33 -134t94 -48q78 0 139.5 94.5t61.5 257.5q0 86 -31 133.5t-82 47.5q-98 0 -166 -119l-231 33l155 778h674l-32 -229h-459l-68 -332q96 70 209 69q129 0 207 -88t78 -256q0 -274 -132 -434t-333 -160q-174 0 -272.5 97.5 t-98.5 271.5z" />
<glyph unicode="6" d="M78 414q0 106 18 248q55 420 175 594t311 174q168 0 249.5 -93.5t81.5 -251.5q0 -61 -8 -112h-250q8 51 9 104q0 145 -97 146q-37 0 -66.5 -21.5t-49 -56.5t-36 -97.5t-27.5 -122t-26 -153.5q88 111 230 111q139 0 210.5 -92.5t71.5 -249.5q0 -252 -125.5 -409 t-308.5 -157q-178 0 -270 101.5t-92 337.5zM324 354q-1 -172 114 -172q68 0 112 65.5t57.5 134.5t13.5 130q0 170 -113 170q-82 0 -133 -93t-51 -235z" />
<glyph unicode="7" d="M141 0q45 315 207 627.5t371 548.5h-567l32 229h832l-25 -166q-492 -631 -559 -1135q-4 -23 -7 -54.5t-5 -49.5h-279z" />
<glyph unicode="8" d="M43 305q0 133 58.5 248t172.5 168q-111 78 -110 242q0 195 110.5 331t298.5 136q172 0 259.5 -94.5t87.5 -233.5q0 -111 -54.5 -216.5t-146.5 -164.5q137 -76 137 -260q0 -205 -115.5 -345.5t-326.5 -140.5q-188 0 -279.5 90t-91.5 240zM297 334q0 -154 125 -154 q82 0 133 74t51 207q0 156 -123 155q-94 0 -140 -86.5t-46 -195.5zM408 961q0 -142 104 -142q68 0 114 71t46 197q0 137 -105 138q-80 0 -119.5 -82t-39.5 -182z" />
<glyph unicode="9" d="M78 319q0 61 8 113h250q-8 -51 -8 -104q0 -145 96 -146q37 0 66.5 21.5t49 56.5t36 97.5t27.5 122t26 153.5q-88 -111 -230 -111q-139 0 -210.5 92.5t-71.5 249.5q0 252 126 409t308 157q178 0 270 -101.5t92 -337.5q0 -106 -18 -248q-55 -420 -175 -594t-310 -174 q-168 0 -250 93t-82 251zM371 893q-1 -170 112 -170q82 0 133.5 93t51.5 235q0 172 -115 172q-68 0 -112 -65.5t-57 -134.5t-13 -130z" />
<glyph unicode=":" horiz-adv-x="559" d="M47 0l39 281h283l-39 -281h-283zM158 797l39 280h282l-39 -280h-282z" />
<glyph unicode=";" horiz-adv-x="559" d="M10 -319l150 319h-105l39 281h283l-35 -256l-184 -344h-148zM170 797l39 280h283l-39 -280h-283z" />
<glyph unicode="&#x3c;" horiz-adv-x="980" d="M51 403l35 261l903 423l-33 -241l-680 -311l592 -312l-32 -241z" />
<glyph unicode="=" horiz-adv-x="980" d="M20 197l31 211h844l-31 -211h-844zM82 631l31 213h843l-30 -213h-844z" />
<glyph unicode="&#x3e;" horiz-adv-x="980" d="M-6 -18l31 241l682 312l-594 311l32 241l785 -423l-35 -261z" />
<glyph unicode="?" horiz-adv-x="1026" d="M137 940q0 205 124 347.5t341 142.5q174 0 274.5 -84t100.5 -224q0 -129 -49 -229t-108.5 -154.5t-117 -128t-67.5 -149.5l-8 -58h-256l12 89q10 78 63.5 154.5t109.5 129.5t102.5 133t46.5 164q0 53 -29 95t-101 42q-94 0 -138 -81.5t-44 -188.5h-256zM303 0l41 281h281 l-41 -281h-281z" />
<glyph unicode="@" horiz-adv-x="1638" d="M68 397q0 500 231 766.5t639 266.5q162 0 280.5 -33t192.5 -89.5t118 -144.5t60.5 -184t16.5 -223q0 -129 -27 -251t-80 -226.5t-145 -169t-211 -64.5q-164 0 -223 113q-78 -113 -201 -113q-127 0 -195.5 88t-68.5 258q0 332 109.5 504t260.5 172q147 0 203 -139l39 116 h172q0 -2 -18.5 -117.5t-38 -248.5t-37 -249t-17.5 -124q0 -82 80 -82q68 0 120 54.5t81 139.5t43 172t14 165q0 274 -111.5 408t-381.5 134q-170 0 -304 -48t-240.5 -149.5t-164 -278.5t-57.5 -419q0 -584 569 -583q82 0 149.5 10t94.5 20l27 11l-17 -138 q-102 -37 -235 -36q-727 0 -727 712zM676 420q0 -184 100 -184q55 0 95 50t58.5 129t27 148.5t8.5 132.5q0 90 -21.5 135.5t-77.5 45.5q-53 0 -94 -54.5t-59.5 -135.5t-27.5 -148.5t-9 -118.5z" />
<glyph unicode="A" horiz-adv-x="1212" d="M-53 0l643 1405h301l252 -1405h-266l-46 276h-501l-121 -276h-262zM434 510h359l-62 385l-24 272h-9q-49 -172 -94 -272z" />
<glyph unicode="B" horiz-adv-x="1212" d="M57 0l197 1405h584q158 0 255 -86t97 -225q0 -129 -76 -224.5t-184 -132.5l-2 -8q90 -31 145 -114t55 -197q0 -186 -137 -302t-321 -116h-613zM348 233h309q90 0 148.5 56.5t58.5 156.5q0 72 -44 115t-130 43h-289zM434 836h273q96 0 153.5 57t57.5 137q-1 141 -146 141 h-291z" />
<glyph unicode="C" horiz-adv-x="1212" d="M92 512q0 172 35 327.5t105.5 292t197.5 217.5t293 81q227 0 355 -132.5t128 -388.5v-26h-266v37q0 135 -57.5 209.5t-159.5 74.5q-106 0 -182 -67.5t-114 -177t-54.5 -217t-16.5 -220.5q0 -321 231 -321h1q129 0 206.5 89t108.5 230h256q-51 -240 -196.5 -392.5 t-381 -152.5t-362.5 134.5t-127 402.5z" />
<glyph unicode="D" horiz-adv-x="1212" d="M57 0l197 1405h432q238 0 366 -135t128 -398q0 -119 -21.5 -237.5t-71 -234t-121 -203.5t-182 -142.5t-243.5 -54.5h-484zM350 233h168q111 0 193 60.5t124 159t61 199t19 202.5q0 156 -69.5 236.5t-196.5 80.5h-168z" />
<glyph unicode="E" horiz-adv-x="1120" d="M57 0l197 1405h885l-33 -234h-625l-47 -335h537l-33 -234h-537l-53 -369h639l-33 -233h-897z" />
<glyph unicode="F" horiz-adv-x="1026" d="M57 0l199 1405h815l-31 -234h-559l-49 -354h475l-33 -233h-475l-82 -584h-260z" />
<glyph unicode="G" horiz-adv-x="1306" d="M92 512q0 164 36 318.5t110.5 293t207 222.5t306.5 84q238 0 370.5 -130.5t132.5 -384.5h-266v19q0 131 -60.5 200.5t-166.5 69.5q-94 0 -168 -46t-118 -117.5t-71.5 -166t-38 -180.5t-10.5 -172q0 -321 250 -321h2q141 0 223 90t109 248h-313l32 225h578l-107 -764h-167 l-25 156q-154 -180 -387 -181q-221 0 -340 134.5t-119 402.5z" />
<glyph unicode="H" horiz-adv-x="1212" d="M57 0l197 1405h260l-80 -569h438l78 569h260l-196 -1405h-260l86 602h-439l-84 -602h-260z" />
<glyph unicode="I" horiz-adv-x="466" d="M37 0l196 1405h261l-197 -1405h-260z" />
<glyph unicode="J" d="M4 264q1 31 21 178h247q-14 -98 -14 -118q0 -123 127 -123q121 0 143 153l148 1051h260l-152 -1071q-25 -174 -127 -266.5t-272 -92.5q-184 0 -282.5 74t-98.5 215z" />
<glyph unicode="K" horiz-adv-x="1212" d="M57 0l197 1405h262l-98 -692l590 692h307l-498 -576l313 -829h-286l-221 629l-254 -271l-50 -358h-262z" />
<glyph unicode="L" horiz-adv-x="1026" d="M57 0l197 1405h260l-162 -1159h588l-35 -246h-848z" />
<glyph unicode="M" horiz-adv-x="1398" d="M43 0l197 1405h362l64 -774l14 -318h8q61 244 92 326l277 766h354l-197 -1405h-239l125 895l41 225h-8l-400 -1120h-225l-88 1120h-8q-12 -170 -21 -225l-127 -895h-221z" />
<glyph unicode="N" horiz-adv-x="1212" d="M57 0l197 1405h229l322 -774l45 -131l6 6q10 94 14 117l109 782h231l-196 -1405h-232l-321 774l-45 131l-8 -6q-6 -80 -13 -117l-108 -782h-230z" />
<glyph unicode="O" horiz-adv-x="1306" d="M92 512q0 164 36 318.5t110.5 293t208 222.5t307.5 84q252 0 387 -134.5t135 -404.5q0 -164 -37 -318.5t-111.5 -292t-208 -221.5t-307.5 -84q-250 0 -385 134.5t-135 402.5zM356 522q0 -321 244 -321h2q117 0 202 67.5t127 177t60.5 217t18.5 218.5q0 323 -244 323h-2 q-117 0 -202 -67.5t-127 -177t-60.5 -218t-18.5 -219.5z" />
<glyph unicode="P" horiz-adv-x="1120" d="M57 0l197 1405h485q193 0 292 -99.5t99 -263.5q0 -221 -133.5 -359t-334.5 -138h-269l-78 -545h-258zM426 776h221q96 0 155.5 60.5t59.5 164.5q0 78 -45 124t-125 46h-211z" />
<glyph unicode="Q" horiz-adv-x="1306" d="M92 512q0 164 36 318.5t110.5 293t208 222.5t307.5 84q252 0 387 -134.5t135 -404.5q0 -129 -23.5 -255t-70.5 -246t-128 -215t-188 -146l230 -283h-318l-172 229q-248 2 -381 136.5t-133 400.5zM356 522q0 -321 244 -321h2q117 0 202 67.5t127 177t60.5 217t18.5 218.5 q0 323 -246 323q-117 0 -202 -67.5t-127 -177t-60.5 -218t-18.5 -219.5z" />
<glyph unicode="R" horiz-adv-x="1212" d="M57 0l197 1405h551q199 0 301 -93t102 -253q0 -152 -80 -263.5t-217 -158.5l189 -637h-281l-164 586h-258l-80 -586h-260zM430 817h277q102 0 161.5 54.5t59.5 150.5q0 149 -162 149h-285z" />
<glyph unicode="S" horiz-adv-x="1120" d="M63 352q0 74 11 125h270q-10 -41 -10 -98q0 -72 46 -125t167 -53q104 0 163.5 53t59.5 129q0 78 -61.5 134t-148.5 93t-174 80t-148.5 122t-61.5 194q0 174 116 299t359 125q246 0 342.5 -119t96.5 -320h-265q0 94 -47 152.5t-141 58.5q-25 0 -49.5 -4t-59 -17.5t-56 -45 t-21.5 -78.5q0 -70 61 -117t147 -82t173.5 -79t148.5 -130t61 -213q0 -215 -144 -338t-368 -123q-82 0 -160.5 20.5t-149 63.5t-114 119t-43.5 174z" />
<glyph unicode="T" horiz-adv-x="1026" d="M131 1171l33 234h950l-33 -234h-346l-164 -1171h-258l164 1171h-346z" />
<glyph unicode="U" horiz-adv-x="1212" d="M121 360q0 43 34.5 304.5t69.5 500.5l35 240h260q-137 -940 -137 -997q0 -100 50 -153.5t145 -53.5q102 0 164.5 67.5t80.5 196.5l131 940h260l-133 -948q-33 -236 -164 -359t-339 -123q-219 0 -338 98.5t-119 286.5z" />
<glyph unicode="V" horiz-adv-x="1120" d="M137 1405h266l146 -999h8l426 999h262l-620 -1405h-260z" />
<glyph unicode="W" horiz-adv-x="1585" d="M137 1405h258l43 -1061h8q33 137 54 197l286 864h297l45 -1061h9q31 127 53 197l285 864h229l-483 -1405h-277l-63 895q-2 25 -2 84l2 115h-11q-33 -139 -53 -199l-299 -895h-276z" />
<glyph unicode="X" horiz-adv-x="1120" d="M-59 0l510 733l-279 672h287l168 -428h8l280 428h291l-469 -672l310 -733h-291l-195 487h-8l-328 -487h-284z" />
<glyph unicode="Y" horiz-adv-x="1120" d="M137 1405h266l203 -617h8l367 617h264l-545 -875l-75 -530h-258l73 530z" />
<glyph unicode="Z" horiz-adv-x="1026" d="M-25 0l9 100l702 1071h-512l33 234h876l-8 -102l-704 -1070h569l-33 -233h-932z" />
<glyph unicode="[" horiz-adv-x="559" d="M-12 -330l254 1835h407l-26 -194h-170l-203 -1446h170l-27 -195h-405z" />
<glyph unicode="\" horiz-adv-x="466" d="M119 1505h166l118 -1605h-167z" />
<glyph unicode="]" horiz-adv-x="559" d="M-53 -330l26 195h168l203 1446h-170l27 194h407l-256 -1835h-405z" />
<glyph unicode="^" horiz-adv-x="980" d="M8 602l432 803h219l209 -803h-225l-129 553l-270 -553h-236z" />
<glyph unicode="_" d="M-90 -270l16 141h932l-18 -141h-930z" />
<glyph unicode="`" horiz-adv-x="559" d="M176 1475l4 6h246l137 -271h-203z" />
<glyph unicode="a" d="M45 356q0 365 120 555.5t288 190.5q164 0 225 -154l41 129h190q-127 -815 -127 -837q0 -57 49 -58h37l-24 -174q-55 -33 -121 -33q-137 0 -170 144q-37 -72 -97.5 -108t-119.5 -36q-139 0 -215 96.5t-76 284.5zM289 385q0 -199 110 -199q59 0 104.5 55.5t66 141.5 t29.5 163t9 146q0 100 -24.5 149.5t-84 49.5t-104.5 -60.5t-65.5 -148.5t-30.5 -163t-10 -134z" />
<glyph unicode="b" horiz-adv-x="1026" d="M47 0l205 1481h244l-72 -510q98 131 256 131q129 0 202.5 -96.5t73.5 -290.5q0 -115 -20.5 -234t-65.5 -237.5t-131.5 -193.5t-201.5 -75q-186 0 -250 168l-49 -143h-191zM348 385q0 -186 133 -186q70 0 118 55t69.5 141t30 159t8.5 142q0 183 -127 183q-68 0 -117 -54.5 t-71.5 -138.5t-33 -158.5t-10.5 -142.5z" />
<glyph unicode="c" d="M74 352q0 92 8 174t27.5 170t55.5 159t86 127t127 88t173 32q174 0 254 -97.5t80 -302.5v-30h-250v30q0 98 -22.5 145.5t-80.5 47.5q-61 0 -106 -65.5t-65.5 -160t-28.5 -165t-8 -113.5q0 -109 23.5 -159t86.5 -50q61 0 104.5 60.5t63.5 156.5h244 q-43 -195 -142.5 -309.5t-287.5 -114.5q-342 0 -342 377z" />
<glyph unicode="d" horiz-adv-x="1026" d="M74 356q0 367 124 556.5t298 189.5q164 0 227 -141l76 520h241l-204 -1481h-199v156q-106 -180 -270 -181q-139 0 -216 97.5t-77 283.5zM322 381q0 -182 129 -182q68 0 116.5 54t71.5 138t32 158t9 143q0 186 -125 187q-72 0 -122 -55.5t-71.5 -141.5t-30.5 -158.5 t-9 -142.5z" />
<glyph unicode="e" d="M68 352q0 145 21.5 268t71.5 237t148.5 179.5t235.5 65.5q334 0 334 -367q0 -139 -23 -258h-539q-4 -43 -4 -94q0 -209 113 -209t156 199h252q-90 -397 -418 -398q-348 0 -348 377zM344 655h283q4 59 4 80q0 168 -101 168q-131 0 -186 -248z" />
<glyph unicode="f" horiz-adv-x="559" d="M-174 -348l27 182h90q92 0 104 98l123 938h-107l29 207h107l18 131q18 123 88 206t205 83q94 0 172 -24l-27 -183h-98q-86 0 -98 -88l-17 -125h185l-29 -207h-184l-127 -954q-16 -123 -85 -206t-200 -83q-94 0 -176 25z" />
<glyph unicode="g" horiz-adv-x="1026" d="M14 -49h250q0 -55 31 -86t98 -31q172 0 205 217l16 111q-98 -133 -243 -133q-131 0 -214 89t-83 265q0 113 20.5 227.5t65.5 230t132 188.5t202 73q182 0 249 -168l48 143h192l-137 -977q-35 -248 -150.5 -360.5t-318.5 -112.5q-176 0 -269.5 93.5t-93.5 230.5zM324 401 q0 -161 133 -161q66 0 112.5 49t69.5 126t33 146.5t10 130.5q0 186 -133 187q-70 0 -118 -52.5t-69.5 -136.5t-29.5 -153.5t-8 -135.5z" />
<glyph unicode="h" horiz-adv-x="1026" d="M47 0l205 1481h244l-74 -516q113 137 266 137q127 0 193.5 -73t66.5 -204q0 -18 -108 -825h-242q100 723 100 743q0 72 -27.5 104t-90.5 32q-74 0 -129.5 -61.5t-69.5 -170.5l-90 -647h-244z" />
<glyph unicode="i" horiz-adv-x="466" d="M47 0l150 1077h243l-149 -1077h-244zM221 1257l31 224h244l-31 -224h-244z" />
<glyph unicode="j" horiz-adv-x="466" d="M-184 -348l24 182h88q92 0 109 98l158 1145h243l-162 -1161q-18 -125 -84.5 -207t-199.5 -82q-98 0 -176 25zM221 1257l31 224h242l-31 -224h-242z" />
<glyph unicode="k" d="M47 0l205 1481h244l-113 -807l340 403h276l-376 -442l241 -635h-258l-155 440l-115 -112l-45 -328h-244z" />
<glyph unicode="l" horiz-adv-x="466" d="M45 0l205 1481h244l-205 -1481h-244z" />
<glyph unicode="m" horiz-adv-x="1492" d="M49 0l152 1077h198v-139q106 164 271 164q184 0 227 -176q115 176 283 176q117 0 178 -73t61 -204q0 -33 -108 -825h-244q102 737 102 760q0 119 -100 119q-63 0 -114.5 -61.5t-65.5 -170.5l-86 -647h-244q100 739 100 760q0 119 -98 119q-66 0 -116 -60.5t-64 -171.5 l-88 -647h-244z" />
<glyph unicode="n" horiz-adv-x="1026" d="M47 0l150 1077h198v-143q113 168 293 168q127 0 193.5 -73t66.5 -204q0 -18 -108 -825h-242q100 739 100 743q0 72 -27.5 104t-90.5 32q-74 0 -130.5 -61.5t-70.5 -170.5l-88 -647h-244z" />
<glyph unicode="o" horiz-adv-x="1026" d="M74 369q0 104 12 199.5t46 195.5t87 172t144.5 119t207.5 47q381 0 381 -400q0 -104 -12 -198t-46 -193.5t-87 -171t-144.5 -118t-207.5 -46.5q-381 1 -381 394zM326 375q0 -193 137 -193q78 0 131 66.5t73.5 169t26.5 167t6 117.5q0 193 -137 193q-78 0 -131 -66.5 t-73.5 -169t-26.5 -167t-6 -117.5z" />
<glyph unicode="p" horiz-adv-x="1026" d="M0 -352l197 1429h198v-157q102 182 271 182q139 0 215.5 -97.5t76.5 -283.5q0 -365 -123.5 -555.5t-297.5 -190.5q-162 0 -230 142l-65 -469h-242zM352 385q0 -186 133 -186q70 0 118 55t69.5 141t30 159t8.5 142q0 182 -129 183q-68 0 -117 -54.5t-71.5 -138.5 t-32 -157.5t-9.5 -143.5z" />
<glyph unicode="q" horiz-adv-x="1026" d="M74 362q0 115 20.5 234t65.5 237.5t132 193.5t202 75q182 0 249 -168l48 143h192l-197 -1429h-243l61 458q-92 -131 -254 -131q-129 0 -202.5 96.5t-73.5 290.5zM324 381q0 -182 127 -182q68 0 116.5 54t71.5 138t33 159t10 142q0 186 -133 187q-70 0 -118 -55.5 t-69.5 -141.5t-29.5 -158.5t-8 -142.5z" />
<glyph unicode="r" horiz-adv-x="653" d="M47 0l150 1077h198v-164q92 188 221 189q29 0 53.5 -4t35.5 -8l10 -5l-31 -237h-78q-199 0 -233 -248l-84 -600h-242z" />
<glyph unicode="s" d="M45 254l12 96h250q-8 -35 -8 -51q0 -123 152 -123q51 0 92 27.5t41 83.5q0 57 -45 94t-109.5 60.5t-130.5 54t-111 99.5t-45 171q0 160 114 248t284 88q184 0 264 -95.5t80 -244.5h-248q0 70 -23 100q-27 39 -98 39q-49 0 -84 -29.5t-35 -76.5q0 -53 46 -87t112 -56.5 t131.5 -51.5t111.5 -95.5t46 -166.5q0 -184 -117 -273.5t-293 -89.5q-180 0 -284.5 74t-104.5 205z" />
<glyph unicode="t" horiz-adv-x="559" d="M70 870l28 207h109l41 303h256l-55 -303h155l-29 -207h-153q-86 -602 -86 -620q0 -68 74 -68h67l-24 -182q-70 -25 -150 -25q-217 1 -217 222q0 23 22.5 191.5t46.5 325.5l23 156h-108z" />
<glyph unicode="u" horiz-adv-x="1026" d="M78 252q0 18 108 825h242q-100 -739 -100 -743q0 -72 27.5 -103.5t90.5 -31.5q74 0 130.5 61.5t70.5 169.5l88 647h244l-150 -1077h-200v139q-117 -164 -291 -164q-127 0 -193.5 73t-66.5 204z" />
<glyph unicode="v" d="M90 1077h244l76 -463l30 -323h9q74 229 114 323l199 463h248l-490 -1077h-248z" />
<glyph unicode="w" horiz-adv-x="1306" d="M86 1077h231l37 -444l19 -352h8q31 190 84 350l153 446h246l27 -448l8 -348h8q57 225 101 348l151 448h219l-407 -1077h-242l-35 514l-12 283h-12q-12 -164 -52 -281l-176 -516h-243z" />
<glyph unicode="x" d="M-51 0l399 557l-227 520h264l119 -305h10l203 305h264l-373 -520l242 -557h-264l-133 346h-11l-233 -346h-260z" />
<glyph unicode="y" d="M-14 -354l22 188h111q123 0 186 166l-205 1077h246l90 -506l29 -280h8q53 186 90 278l203 508h242l-433 -1022q-86 -199 -190 -313.5t-246 -114.5q-45 0 -83 4t-54 8.5t-16 6.5z" />
<glyph unicode="z" horiz-adv-x="839" d="M-25 0l9 104l510 766h-383l28 207h715l-8 -102l-514 -768h422l-29 -207h-750z" />
<glyph unicode="{" horiz-adv-x="653" d="M35 496l26 188q63 0 113.5 29.5t61.5 93.5l57 395q12 92 53 155.5t104.5 94.5t131 42t155.5 11l-20 -157q-164 0 -180 -125q-10 -76 -37 -212.5t-35 -189.5q-18 -111 -77.5 -166t-174.5 -55l-2 -20q104 0 148 -45.5t44 -135.5q0 -43 -23.5 -241.5t-23.5 -223.5 q0 -102 146 -102l-21 -158q-80 0 -140 10.5t-114.5 35t-83 74.5t-28.5 124q0 18 4 59q8 61 16 114.5t13.5 91.5t9.5 70t7 52.5t6 36.5t4 25.5t2 15.5t1 9v5q0 90 -143 99z" />
<glyph unicode="|" horiz-adv-x="471" d="M143 -354v1835h185v-1835h-185z" />
<glyph unicode="}" horiz-adv-x="653" d="M-57 -326l20 158q164 0 180 125q10 76 37 212t35 189q18 111 77.5 166.5t174.5 55.5l2 20q-104 0 -148.5 45t-44.5 135q0 43 24 242t24 223q0 102 -146 103l21 157q80 0 140 -10t114.5 -34.5t83 -75t28.5 -123.5q0 -18 -4 -60q-8 -61 -16 -114.5t-13.5 -91.5t-9.5 -69.5 t-7 -52t-6 -37t-4 -25.5t-2 -15t-1 -9v-6q0 -90 143 -98l-27 -188q-63 0 -113 -30t-61 -93l-57 -396q-12 -92 -53 -155.5t-104.5 -94t-131 -42t-155.5 -11.5z" />
<glyph unicode="~" horiz-adv-x="980" d="M41 403l35 246q4 6 12 16.5t35 36t56.5 45t75.5 36t93 16.5q66 0 174.5 -62.5t175.5 -62.5q66 0 133.5 38t103.5 74l36 37l-35 -245q-4 -6 -12.5 -16.5t-35 -36t-56 -45t-75.5 -36t-93 -16.5q-66 0 -174.5 62.5t-176.5 62.5q-66 0 -133 -37t-103 -75z" />
<glyph unicode="&#xa2;" d="M74 516q0 135 18.5 252t63.5 230.5t135 184t219 81.5l31 217h98l-31 -219q143 -14 210 -111.5t67 -284.5v-30h-234v30q0 170 -71 199l-101 -727q98 37 139 225h228q-43 -186 -134 -298.5t-261 -125.5l-33 -239h-99l33 243q-279 31 -278 373zM307 555q0 -186 74 -217 l100 725q-92 -45 -133 -220t-41 -288z" />
<glyph unicode="&#xa3;" d="M-14 0l30 221h103l51 369h-127l29 207h125l32 225q29 203 132.5 305.5t271.5 102.5q162 0 250 -80t88 -234q0 -41 -10 -110h-242q12 82 12 96q0 59 -28.5 90t-79.5 31q-119 0 -142 -148l-39 -278h244l-29 -207h-245l-72 -369h498l-33 -221h-819z" />
<glyph unicode="&#xa5;" d="M37 313l22 166h283l20 144h-282l22 165h213l-174 617h260l121 -539h8l265 539h254l-349 -617h213l-22 -167h-283l-20 -142h282l-22 -166h-283l-45 -313h-244l46 313h-285z" />
<glyph unicode="&#xa9;" horiz-adv-x="1236" d="M33 702.5q0 333.5 156.5 530.5t429 197t429 -197t156.5 -530.5t-156.5 -530.5t-429 -197t-429 197t-156.5 530.5zM147 702.5q0 -282.5 126 -448.5t345.5 -166t345.5 166t126 448.5t-126 448.5t-345.5 166t-345.5 -166t-126 -448.5zM293 702.5q0 215.5 86 323t244 107.5 q137 0 221 -81t84 -243h-178q0 84 -34 127t-93 43q-150 0 -150 -246v-59q0 -246 156 -246q127 0 127 168h172q0 -158 -84 -240t-221 -82q-158 0 -244 106.5t-86 322z" />
<glyph unicode="&#xad;" horiz-adv-x="559" d="M27 432l34 242h494l-35 -242h-493z" />
<glyph unicode="&#xae;" horiz-adv-x="1236" d="M33 702.5q0 333.5 156.5 530.5t429 197t429 -197t156.5 -530.5t-156.5 -530.5t-429 -197t-429 197t-156.5 530.5zM147 702.5q0 -282.5 126 -448.5t345.5 -166t345.5 166t126 448.5t-126 448.5t-345.5 166t-345.5 -166t-126 -448.5zM356 287v831h324q100 0 165.5 -58.5 t65.5 -150.5q0 -147 -129 -194v-8q121 -43 121 -222q0 -127 60 -147v-41q-25 -16 -80 -16q-156 0 -156 157q0 186 -121 187h-74v-338h-176zM532 782h84q51 0 83 27t32 68q0 39 -29.5 60t-78.5 21h-91v-176z" />
<glyph unicode="&#xb4;" horiz-adv-x="559" d="M287 1210l176 271h246l2 -6l-222 -265h-202z" />
<glyph unicode="&#x2000;" horiz-adv-x="752" />
<glyph unicode="&#x2001;" horiz-adv-x="1505" />
<glyph unicode="&#x2002;" horiz-adv-x="752" />
<glyph unicode="&#x2003;" horiz-adv-x="1505" />
<glyph unicode="&#x2004;" horiz-adv-x="501" />
<glyph unicode="&#x2005;" horiz-adv-x="376" />
<glyph unicode="&#x2006;" horiz-adv-x="250" />
<glyph unicode="&#x2007;" horiz-adv-x="250" />
<glyph unicode="&#x2008;" horiz-adv-x="188" />
<glyph unicode="&#x2009;" horiz-adv-x="301" />
<glyph unicode="&#x200a;" horiz-adv-x="83" />
<glyph unicode="&#x2010;" horiz-adv-x="559" d="M27 432l34 242h494l-35 -242h-493z" />
<glyph unicode="&#x2011;" horiz-adv-x="559" d="M27 432l34 242h494l-35 -242h-493z" />
<glyph unicode="&#x2012;" horiz-adv-x="559" d="M27 432l34 242h494l-35 -242h-493z" />
<glyph unicode="&#x2013;" d="M-2 453l25 200h933l-26 -200h-932z" />
<glyph unicode="&#x2014;" horiz-adv-x="1679" d="M-2 453l25 200h1679l-27 -200h-1677z" />
<glyph unicode="&#x2018;" horiz-adv-x="466" d="M131 805l35 256l184 344h148l-150 -320h105l-39 -280h-283z" />
<glyph unicode="&#x2019;" horiz-adv-x="466" d="M143 805l150 319h-105l39 281h283l-35 -256l-184 -344h-148z" />
<glyph unicode="&#x201c;" horiz-adv-x="839" d="M115 805l35 256l184 344h147l-149 -320h104l-39 -280h-282zM489 805l35 256l185 344h147l-149 -320h104l-39 -280h-283z" />
<glyph unicode="&#x201d;" horiz-adv-x="839" d="M143 805l150 319h-105l39 281h283l-35 -256l-184 -344h-148zM518 805l150 319h-105l39 281h283l-35 -256l-184 -344h-148z" />
<glyph unicode="&#x2022;" horiz-adv-x="587" d="M70 704.5q0 104.5 71.5 178t174 73.5t175 -74.5t72.5 -176.5q0 -104 -72.5 -179t-175 -75t-174 74.5t-71.5 179z" />
<glyph unicode="&#x2026;" horiz-adv-x="1679" d="M74 0l39 281h282l-39 -281h-282zM633 0l39 281h282l-39 -281h-282zM1192 0l39 281h282l-38 -281h-283z" />
<glyph unicode="&#x202f;" horiz-adv-x="301" />
<glyph unicode="&#x205f;" horiz-adv-x="376" />
<glyph unicode="&#x20ac;" d="M12 465l23 166h100q0 23 8 71q2 20 11 72h-101l25 166h123q184 489 661 490q86 0 150 -21l-29 -205q-58 18 -129 19q-131 0 -233.5 -75t-165.5 -208h368l-24 -166h-400q-8 -51 -10 -72q-8 -49 -8 -71h399l-24 -166h-369q43 -283 322 -283q70 0 133 19l-29 -203 q-80 -23 -154 -23q-229 0 -366 130.5t-160 359.5h-121z" />
<glyph unicode="&#x2122;" horiz-adv-x="1679" d="M195 1268l20 137h565l-20 -137h-207l-96 -690h-154l96 690h-204zM729 578l117 827h227l47 -580h8l211 580h213l-116 -827h-148l84 600h-8l-219 -600h-137l-50 600h-10l-84 -600h-135z" />
<glyph unicode="&#xe000;" horiz-adv-x="1075" d="M0 1075h1075v-1075h-1075v1075z" />
</font>
</defs>
</svg>
